%TF.GenerationSoftware,KiCad,Pcbnew,8.0.6*%
%TF.CreationDate,2024-11-24T09:52:55+11:00*%
%TF.ProjectId,cheating-calc,63686561-7469-46e6-972d-63616c632e6b,rev?*%
%TF.SameCoordinates,Original*%
%TF.FileFunction,Legend,Top*%
%TF.FilePolarity,Positive*%
%FSLAX46Y46*%
G04 Gerber Fmt 4.6, Leading zero omitted, Abs format (unit mm)*
G04 Created by KiCad (PCBNEW 8.0.6) date 2024-11-24 09:52:55*
%MOMM*%
%LPD*%
G01*
G04 APERTURE LIST*
%ADD10C,0.150000*%
%ADD11C,0.200000*%
%ADD12C,0.120000*%
%ADD13C,0.127000*%
G04 APERTURE END LIST*
D10*
G36*
X101666375Y-68645925D02*
G01*
X101695479Y-68685951D01*
X101699631Y-68716969D01*
X101698504Y-68729956D01*
X101671543Y-68771436D01*
X101580929Y-68806362D01*
X101555611Y-68815644D01*
X101485677Y-68841621D01*
X101424486Y-68865422D01*
X101371667Y-68887847D01*
X101326851Y-68909700D01*
X101278908Y-68939331D01*
X101236729Y-68979836D01*
X101212677Y-69027658D01*
X101205039Y-69086509D01*
X101205039Y-69344185D01*
X101648829Y-69344185D01*
X101691429Y-69360124D01*
X101708180Y-69408421D01*
X101693159Y-69456873D01*
X101647363Y-69475832D01*
X100756609Y-69475832D01*
X100727992Y-69474675D01*
X100673816Y-69462715D01*
X100632126Y-69432348D01*
X100610145Y-69383049D01*
X100605423Y-69332950D01*
X100605423Y-69013725D01*
X100721683Y-69013725D01*
X100721683Y-69297779D01*
X100726273Y-69321638D01*
X100770531Y-69344185D01*
X101090001Y-69344185D01*
X101090001Y-69022029D01*
X101086613Y-68979398D01*
X101073296Y-68932131D01*
X101045077Y-68885386D01*
X101004849Y-68850936D01*
X100954032Y-68830279D01*
X100904621Y-68824681D01*
X100872680Y-68826377D01*
X100817608Y-68839884D01*
X100774605Y-68866732D01*
X100744057Y-68906746D01*
X100726350Y-68959753D01*
X100721683Y-69013725D01*
X100605423Y-69013725D01*
X100605423Y-69005176D01*
X100605738Y-68986416D01*
X100610397Y-68933375D01*
X100624974Y-68870358D01*
X100648635Y-68816368D01*
X100680864Y-68771649D01*
X100721140Y-68736445D01*
X100768947Y-68710997D01*
X100823767Y-68695550D01*
X100885081Y-68690347D01*
X100928208Y-68692700D01*
X100979598Y-68702851D01*
X101034360Y-68725960D01*
X101079042Y-68759548D01*
X101114124Y-68802435D01*
X101140087Y-68853441D01*
X101157412Y-68911387D01*
X101162966Y-68896070D01*
X101190854Y-68854211D01*
X101229146Y-68821874D01*
X101271287Y-68796053D01*
X101324930Y-68769029D01*
X101373418Y-68747279D01*
X101429535Y-68723718D01*
X101493776Y-68697863D01*
X101541362Y-68679112D01*
X101617810Y-68643941D01*
X101641501Y-68639789D01*
X101666375Y-68645925D01*
G37*
G36*
X101642234Y-68468575D02*
G01*
X101686877Y-68447540D01*
X101699631Y-68402629D01*
X101685129Y-68353658D01*
X101642234Y-68333997D01*
X100647433Y-68333997D01*
X100602229Y-68356016D01*
X100589792Y-68402629D01*
X100603958Y-68449798D01*
X100647433Y-68468575D01*
X101642234Y-68468575D01*
G37*
G36*
X101072660Y-67377786D02*
G01*
X101129410Y-67377429D01*
X101185655Y-67376424D01*
X101240811Y-67374870D01*
X101294294Y-67372866D01*
X101345522Y-67370511D01*
X101409309Y-67366996D01*
X101466666Y-67363268D01*
X101516212Y-67359561D01*
X101565053Y-67355316D01*
X101514058Y-67379848D01*
X101463380Y-67405465D01*
X101419394Y-67428423D01*
X101373821Y-67452862D01*
X101328019Y-67478125D01*
X101283349Y-67503559D01*
X101241170Y-67528506D01*
X101231173Y-67534590D01*
X100657447Y-67887277D01*
X100617472Y-67918296D01*
X100593349Y-67964669D01*
X100589792Y-68000849D01*
X100600781Y-68049132D01*
X100639148Y-68082904D01*
X100674300Y-68089021D01*
X101642234Y-68089021D01*
X101686877Y-68067803D01*
X101699631Y-68021854D01*
X101685129Y-67974685D01*
X101642234Y-67955909D01*
X101211634Y-67955909D01*
X101153968Y-67956193D01*
X101097370Y-67957000D01*
X101042302Y-67958260D01*
X100989226Y-67959902D01*
X100938606Y-67961856D01*
X100875732Y-67964826D01*
X100819141Y-67968061D01*
X100769929Y-67971395D01*
X100720461Y-67975448D01*
X100766243Y-67953777D01*
X100811974Y-67931069D01*
X100861786Y-67905412D01*
X100913048Y-67878001D01*
X100963126Y-67850034D01*
X101009387Y-67822707D01*
X101017949Y-67817423D01*
X101619764Y-67446418D01*
X101663180Y-67415680D01*
X101692422Y-67375646D01*
X101699631Y-67328693D01*
X101688265Y-67280894D01*
X101648317Y-67249936D01*
X101611459Y-67244674D01*
X100647433Y-67244674D01*
X100602229Y-67265127D01*
X100589792Y-67310619D01*
X100603958Y-67358857D01*
X100647433Y-67377786D01*
X101072660Y-67377786D01*
G37*
G36*
X101323741Y-66263550D02*
G01*
X101382812Y-66269573D01*
X101435669Y-66286776D01*
X101481800Y-66313859D01*
X101520693Y-66349524D01*
X101551834Y-66392469D01*
X101574712Y-66441397D01*
X101588815Y-66495007D01*
X101593630Y-66552001D01*
X101589374Y-66609274D01*
X101576738Y-66662683D01*
X101555919Y-66711842D01*
X101527117Y-66756363D01*
X101490529Y-66795862D01*
X101446353Y-66829951D01*
X101394787Y-66858244D01*
X101336030Y-66880355D01*
X101270278Y-66895897D01*
X101197731Y-66904483D01*
X101145688Y-66906153D01*
X101096016Y-66904592D01*
X101026495Y-66896522D01*
X100963189Y-66881817D01*
X100906359Y-66860745D01*
X100856264Y-66833577D01*
X100813164Y-66800582D01*
X100777318Y-66762028D01*
X100748986Y-66718186D01*
X100728427Y-66669324D01*
X100715902Y-66615712D01*
X100711669Y-66557618D01*
X100715138Y-66503259D01*
X100728294Y-66445601D01*
X100749626Y-66398245D01*
X100783570Y-66353311D01*
X100823780Y-66319369D01*
X100867251Y-66294325D01*
X100900099Y-66256303D01*
X100902422Y-66236928D01*
X100896072Y-66202001D01*
X100863940Y-66163076D01*
X100843804Y-66158526D01*
X100816205Y-66165609D01*
X100768665Y-66193349D01*
X100720293Y-66231494D01*
X100683440Y-66270461D01*
X100650248Y-66317729D01*
X100622577Y-66374030D01*
X100606570Y-66422621D01*
X100595503Y-66477011D01*
X100590163Y-66537508D01*
X100589792Y-66559084D01*
X100592457Y-66614828D01*
X100600321Y-66667606D01*
X100613183Y-66717331D01*
X100630843Y-66763916D01*
X100665893Y-66827715D01*
X100710613Y-66883959D01*
X100764329Y-66932355D01*
X100804804Y-66960115D01*
X100848777Y-66984169D01*
X100896049Y-67004431D01*
X100946418Y-67020813D01*
X100999686Y-67033230D01*
X101055652Y-67041593D01*
X101114116Y-67045816D01*
X101144223Y-67046348D01*
X101206986Y-67044213D01*
X101266934Y-67037865D01*
X101323897Y-67027391D01*
X101377704Y-67012876D01*
X101428185Y-66994407D01*
X101475170Y-66972069D01*
X101518488Y-66945951D01*
X101557970Y-66916136D01*
X101609626Y-66864675D01*
X101651691Y-66805383D01*
X101674123Y-66761649D01*
X101691866Y-66714651D01*
X101704751Y-66664474D01*
X101712606Y-66611206D01*
X101715263Y-66554932D01*
X101712229Y-66505552D01*
X101701346Y-66449987D01*
X101683860Y-66399226D01*
X101661141Y-66354088D01*
X101629852Y-66309630D01*
X101620252Y-66298721D01*
X101582506Y-66267639D01*
X101566763Y-66257933D01*
X101615485Y-66262174D01*
X101624404Y-66262329D01*
X101660796Y-66262329D01*
X101705867Y-66240046D01*
X101715263Y-66202001D01*
X101696411Y-66155325D01*
X101654935Y-66143138D01*
X101258773Y-66143138D01*
X101209686Y-66147956D01*
X101165869Y-66169578D01*
X101140838Y-66216683D01*
X101136896Y-66257933D01*
X101136896Y-66483369D01*
X101158949Y-66528924D01*
X101198689Y-66539545D01*
X101244746Y-66521939D01*
X101257307Y-66483369D01*
X101257307Y-66299942D01*
X101290186Y-66263749D01*
X101296630Y-66263550D01*
X101323741Y-66263550D01*
G37*
G36*
X96243741Y-68739196D02*
G01*
X96302812Y-68745219D01*
X96355669Y-68762422D01*
X96401800Y-68789505D01*
X96440693Y-68825169D01*
X96471834Y-68868115D01*
X96494712Y-68917043D01*
X96508815Y-68970653D01*
X96513630Y-69027646D01*
X96509374Y-69084919D01*
X96496738Y-69138328D01*
X96475919Y-69187487D01*
X96447117Y-69232009D01*
X96410529Y-69271508D01*
X96366353Y-69305597D01*
X96314787Y-69333890D01*
X96256030Y-69356000D01*
X96190278Y-69371542D01*
X96117731Y-69380129D01*
X96065688Y-69381799D01*
X96016016Y-69380238D01*
X95946495Y-69372167D01*
X95883189Y-69357462D01*
X95826359Y-69336391D01*
X95776264Y-69309223D01*
X95733164Y-69276227D01*
X95697318Y-69237674D01*
X95668986Y-69193831D01*
X95648427Y-69144969D01*
X95635902Y-69091357D01*
X95631669Y-69033264D01*
X95635138Y-68978904D01*
X95648294Y-68921246D01*
X95669626Y-68873891D01*
X95703570Y-68828956D01*
X95743780Y-68795015D01*
X95787251Y-68769970D01*
X95820099Y-68731948D01*
X95822422Y-68712573D01*
X95816072Y-68677646D01*
X95783940Y-68638721D01*
X95763804Y-68634171D01*
X95736205Y-68641254D01*
X95688665Y-68668994D01*
X95640293Y-68707140D01*
X95603440Y-68746106D01*
X95570248Y-68793375D01*
X95542577Y-68849675D01*
X95526570Y-68898267D01*
X95515503Y-68952657D01*
X95510163Y-69013154D01*
X95509792Y-69034729D01*
X95512457Y-69090474D01*
X95520321Y-69143252D01*
X95533183Y-69192977D01*
X95550843Y-69239561D01*
X95585893Y-69303360D01*
X95630613Y-69359605D01*
X95684329Y-69408001D01*
X95724804Y-69435760D01*
X95768777Y-69459814D01*
X95816049Y-69480076D01*
X95866418Y-69496459D01*
X95919686Y-69508875D01*
X95975652Y-69517239D01*
X96034116Y-69521462D01*
X96064223Y-69521994D01*
X96126986Y-69519859D01*
X96186934Y-69513511D01*
X96243897Y-69503036D01*
X96297704Y-69488521D01*
X96348185Y-69470052D01*
X96395170Y-69447715D01*
X96438488Y-69421596D01*
X96477970Y-69391782D01*
X96529626Y-69340320D01*
X96571691Y-69281028D01*
X96594123Y-69237295D01*
X96611866Y-69190296D01*
X96624751Y-69140120D01*
X96632606Y-69086851D01*
X96635263Y-69030577D01*
X96632229Y-68981197D01*
X96621346Y-68925633D01*
X96603860Y-68874871D01*
X96581141Y-68829733D01*
X96549852Y-68785275D01*
X96540252Y-68774367D01*
X96502506Y-68743285D01*
X96486763Y-68733578D01*
X96535485Y-68737820D01*
X96544404Y-68737974D01*
X96580796Y-68737974D01*
X96625867Y-68715692D01*
X96635263Y-68677646D01*
X96616411Y-68630971D01*
X96574935Y-68618784D01*
X96178773Y-68618784D01*
X96129686Y-68623601D01*
X96085869Y-68645223D01*
X96060838Y-68692329D01*
X96056896Y-68733578D01*
X96056896Y-68959014D01*
X96078949Y-69004569D01*
X96118689Y-69015190D01*
X96164746Y-68997585D01*
X96177307Y-68959014D01*
X96177307Y-68775588D01*
X96210186Y-68739395D01*
X96216630Y-68739196D01*
X96243741Y-68739196D01*
G37*
G36*
X95992660Y-67692371D02*
G01*
X96049410Y-67692014D01*
X96105655Y-67691009D01*
X96160811Y-67689455D01*
X96214294Y-67687451D01*
X96265522Y-67685096D01*
X96329309Y-67681581D01*
X96386666Y-67677853D01*
X96436212Y-67674146D01*
X96485053Y-67669900D01*
X96434058Y-67694433D01*
X96383380Y-67720050D01*
X96339394Y-67743008D01*
X96293821Y-67767447D01*
X96248019Y-67792710D01*
X96203349Y-67818143D01*
X96161170Y-67843091D01*
X96151173Y-67849175D01*
X95577447Y-68201861D01*
X95537472Y-68232881D01*
X95513349Y-68279254D01*
X95509792Y-68315434D01*
X95520781Y-68363717D01*
X95559148Y-68397488D01*
X95594300Y-68403606D01*
X96562234Y-68403606D01*
X96606877Y-68382388D01*
X96619631Y-68336439D01*
X96605129Y-68289270D01*
X96562234Y-68270494D01*
X96131634Y-68270494D01*
X96073968Y-68270778D01*
X96017370Y-68271585D01*
X95962302Y-68272845D01*
X95909226Y-68274486D01*
X95858606Y-68276441D01*
X95795732Y-68279411D01*
X95739141Y-68282646D01*
X95689929Y-68285980D01*
X95640461Y-68290033D01*
X95686243Y-68268361D01*
X95731974Y-68245654D01*
X95781786Y-68219996D01*
X95833048Y-68192586D01*
X95883126Y-68164619D01*
X95929387Y-68137291D01*
X95937949Y-68132008D01*
X96539764Y-67761003D01*
X96583180Y-67730265D01*
X96612422Y-67690231D01*
X96619631Y-67643278D01*
X96608265Y-67595479D01*
X96568317Y-67564521D01*
X96531459Y-67559258D01*
X95567433Y-67559258D01*
X95522229Y-67579712D01*
X95509792Y-67625204D01*
X95523958Y-67673442D01*
X95567433Y-67692371D01*
X95992660Y-67692371D01*
G37*
G36*
X96093200Y-66431640D02*
G01*
X96155463Y-66435924D01*
X96214268Y-66444401D01*
X96269517Y-66456981D01*
X96321110Y-66473569D01*
X96368948Y-66494074D01*
X96412933Y-66518402D01*
X96452965Y-66546462D01*
X96505384Y-66595345D01*
X96548351Y-66652101D01*
X96581533Y-66716418D01*
X96598052Y-66763343D01*
X96609974Y-66813396D01*
X96617200Y-66866485D01*
X96619631Y-66922517D01*
X96619631Y-67171889D01*
X96617565Y-67206569D01*
X96603492Y-67255081D01*
X96569717Y-67292411D01*
X96523271Y-67310104D01*
X96469910Y-67314771D01*
X95676854Y-67314771D01*
X95648174Y-67313615D01*
X95593895Y-67301654D01*
X95552146Y-67271287D01*
X95530147Y-67221989D01*
X95525423Y-67171889D01*
X95525423Y-66925448D01*
X95645835Y-66925448D01*
X95645835Y-67135497D01*
X95649789Y-67156002D01*
X95692485Y-67181659D01*
X96450127Y-67181659D01*
X96471208Y-67178587D01*
X96497998Y-67136718D01*
X96497998Y-66929600D01*
X96493775Y-66868296D01*
X96481269Y-66812142D01*
X96460721Y-66761331D01*
X96432375Y-66716054D01*
X96396473Y-66676505D01*
X96353258Y-66642874D01*
X96302972Y-66615354D01*
X96245859Y-66594137D01*
X96182162Y-66579414D01*
X96112122Y-66571378D01*
X96062025Y-66569831D01*
X96013116Y-66571286D01*
X95945142Y-66578885D01*
X95883754Y-66592904D01*
X95829086Y-66613253D01*
X95781273Y-66639844D01*
X95740447Y-66672586D01*
X95706744Y-66711391D01*
X95680297Y-66756169D01*
X95661241Y-66806831D01*
X95649709Y-66863287D01*
X95645835Y-66925448D01*
X95525423Y-66925448D01*
X95525423Y-66922517D01*
X95527714Y-66866042D01*
X95534533Y-66812624D01*
X95545801Y-66762345D01*
X95561437Y-66715285D01*
X95592909Y-66650908D01*
X95633762Y-66594229D01*
X95683727Y-66545521D01*
X95742534Y-66505058D01*
X95786519Y-66482797D01*
X95834234Y-66464402D01*
X95885600Y-66449954D01*
X95940536Y-66439534D01*
X95998964Y-66433222D01*
X96060803Y-66431101D01*
X96093200Y-66431640D01*
G37*
G36*
X98188766Y-69188602D02*
G01*
X99102722Y-69188602D01*
X99147013Y-69166900D01*
X99159631Y-69121436D01*
X99145282Y-69073656D01*
X99102722Y-69054269D01*
X98188766Y-69054269D01*
X98188766Y-68736509D01*
X98164070Y-68693009D01*
X98128438Y-68683264D01*
X98080246Y-68700855D01*
X98065423Y-68736509D01*
X98065423Y-69507828D01*
X98091311Y-69551759D01*
X98128438Y-69561073D01*
X98174641Y-69543265D01*
X98188766Y-69506607D01*
X98188766Y-69188602D01*
G37*
G36*
X99102234Y-68530124D02*
G01*
X99146877Y-68509089D01*
X99159631Y-68464178D01*
X99145129Y-68415207D01*
X99102234Y-68395546D01*
X98107433Y-68395546D01*
X98062229Y-68417565D01*
X98049792Y-68464178D01*
X98063958Y-68511348D01*
X98107433Y-68530124D01*
X99102234Y-68530124D01*
G37*
G36*
X98414383Y-67352663D02*
G01*
X98467519Y-67360458D01*
X98515795Y-67374752D01*
X98572305Y-67403624D01*
X98619457Y-67443335D01*
X98656844Y-67493475D01*
X98678229Y-67537680D01*
X98693718Y-67587348D01*
X98703138Y-67642307D01*
X98706316Y-67702385D01*
X98706316Y-68018923D01*
X99101257Y-68018923D01*
X99145099Y-68037669D01*
X99159631Y-68084625D01*
X99146711Y-68130117D01*
X99099792Y-68150570D01*
X98216365Y-68150570D01*
X98187810Y-68149414D01*
X98133736Y-68137453D01*
X98092105Y-68107086D01*
X98070144Y-68057788D01*
X98065423Y-68007688D01*
X98065423Y-67705316D01*
X98184614Y-67705316D01*
X98184614Y-67973983D01*
X98188778Y-67996168D01*
X98233218Y-68018923D01*
X98588836Y-68018923D01*
X98588836Y-67705316D01*
X98583401Y-67643877D01*
X98567330Y-67592292D01*
X98534491Y-67543718D01*
X98487433Y-67510060D01*
X98437788Y-67493691D01*
X98379031Y-67488184D01*
X98367471Y-67488409D01*
X98314652Y-67496229D01*
X98262561Y-67519984D01*
X98223299Y-67558880D01*
X98200770Y-67602448D01*
X98187838Y-67655804D01*
X98184614Y-67705316D01*
X98065423Y-67705316D01*
X98065423Y-67696767D01*
X98065755Y-67676328D01*
X98070689Y-67618454D01*
X98081415Y-67565853D01*
X98097787Y-67518664D01*
X98128144Y-67464403D01*
X98167925Y-67420338D01*
X98216783Y-67386800D01*
X98274368Y-67364116D01*
X98323074Y-67354425D01*
X98376344Y-67351163D01*
X98414383Y-67352663D01*
G37*
G36*
X93293182Y-69489754D02*
G01*
X93304417Y-69489754D01*
X93349230Y-69469598D01*
X93362058Y-69432357D01*
X93363279Y-69418191D01*
X93346288Y-69371419D01*
X93322735Y-69352489D01*
X93282646Y-69320304D01*
X93251327Y-69280635D01*
X93229484Y-69233221D01*
X93217822Y-69177803D01*
X93216001Y-69142441D01*
X93220403Y-69091311D01*
X93237816Y-69034811D01*
X93267648Y-68987437D01*
X93309027Y-68950146D01*
X93361081Y-68923893D01*
X93409825Y-68911481D01*
X93464396Y-68907235D01*
X93519727Y-68911736D01*
X93569714Y-68924881D01*
X93613731Y-68946132D01*
X93659401Y-68983275D01*
X93693538Y-69031191D01*
X93711721Y-69076575D01*
X93721113Y-69127644D01*
X93722316Y-69155141D01*
X93718619Y-69203930D01*
X93704973Y-69256023D01*
X93682211Y-69300819D01*
X93645449Y-69343498D01*
X93599184Y-69375448D01*
X93591891Y-69379112D01*
X93558884Y-69416962D01*
X93556964Y-69432357D01*
X93566734Y-69470214D01*
X93604015Y-69503172D01*
X93624131Y-69506607D01*
X93656371Y-69498058D01*
X93707380Y-69465780D01*
X93750878Y-69425279D01*
X93786399Y-69376561D01*
X93808762Y-69331673D01*
X93825485Y-69281532D01*
X93836331Y-69226141D01*
X93841063Y-69165503D01*
X93841263Y-69149524D01*
X93837201Y-69087145D01*
X93825304Y-69029377D01*
X93806008Y-68976551D01*
X93779748Y-68929001D01*
X93746957Y-68887060D01*
X93708071Y-68851062D01*
X93663523Y-68821339D01*
X93613750Y-68798226D01*
X93559186Y-68782055D01*
X93500265Y-68773159D01*
X93458778Y-68771436D01*
X93400103Y-68775071D01*
X93345739Y-68785755D01*
X93296006Y-68803158D01*
X93251221Y-68826948D01*
X93211705Y-68856796D01*
X93177775Y-68892369D01*
X93149751Y-68933338D01*
X93127951Y-68979370D01*
X93112694Y-69030136D01*
X93104299Y-69085305D01*
X93102672Y-69124367D01*
X93105947Y-69179885D01*
X93115887Y-69230232D01*
X93136140Y-69283026D01*
X93165978Y-69330093D01*
X93199392Y-69366411D01*
X93149761Y-69356245D01*
X93134912Y-69353955D01*
X92876992Y-69327332D01*
X92851835Y-69299244D01*
X92851835Y-68865225D01*
X92825574Y-68822716D01*
X92791751Y-68814911D01*
X92745074Y-68831372D01*
X92731423Y-68865225D01*
X92731423Y-69345406D01*
X92740697Y-69393484D01*
X92775313Y-69429832D01*
X92822526Y-69443592D01*
X93293182Y-69489754D01*
G37*
G36*
X93524480Y-68126390D02*
G01*
X93571381Y-68141451D01*
X93620865Y-68155766D01*
X93670879Y-68169400D01*
X93698136Y-68176704D01*
X93649388Y-68189753D01*
X93599419Y-68203192D01*
X93551066Y-68217414D01*
X93525945Y-68225797D01*
X92756580Y-68498861D01*
X92720403Y-68532975D01*
X92715792Y-68558944D01*
X92720188Y-68584101D01*
X92747742Y-68626031D01*
X92779050Y-68636125D01*
X92801521Y-68631729D01*
X93761395Y-68271959D01*
X93803186Y-68245340D01*
X93823889Y-68200090D01*
X93825631Y-68176704D01*
X93815384Y-68127027D01*
X93778998Y-68090481D01*
X93762616Y-68082915D01*
X92798590Y-67721680D01*
X92777585Y-67717528D01*
X92733026Y-67742141D01*
X92720188Y-67769307D01*
X92715792Y-67794464D01*
X92732960Y-67840503D01*
X92756580Y-67854792D01*
X93524480Y-68126390D01*
G37*
D11*
G36*
X86920066Y-55086001D02*
G01*
X86920066Y-53787630D01*
X86487000Y-53787630D01*
X86487000Y-53544730D01*
X87595203Y-53544730D01*
X87595203Y-53787630D01*
X87162136Y-53787630D01*
X87162136Y-55086001D01*
X86920066Y-55086001D01*
G37*
G36*
X88000450Y-55086001D02*
G01*
X88000450Y-54843101D01*
X88217191Y-54843101D01*
X88217191Y-53787630D01*
X88000450Y-53787630D01*
X88000450Y-53544730D01*
X88675586Y-53544730D01*
X88675586Y-53787630D01*
X88459260Y-53787630D01*
X88459260Y-54843101D01*
X88675586Y-54843101D01*
X88675586Y-55086001D01*
X88000450Y-55086001D01*
G37*
G36*
X89054676Y-54437438D02*
G01*
X89054676Y-54194539D01*
X90162879Y-54194539D01*
X90162879Y-54437438D01*
X89054676Y-54437438D01*
G37*
G36*
X90568127Y-55086001D02*
G01*
X90568127Y-54843101D01*
X91243263Y-54843101D01*
X91243263Y-55086001D01*
X90568127Y-55086001D01*
G37*
G36*
X90351801Y-54869675D02*
G01*
X90351801Y-54626360D01*
X90594700Y-54626360D01*
X90594700Y-54869675D01*
X90351801Y-54869675D01*
G37*
G36*
X91216689Y-54869675D02*
G01*
X91216689Y-54410864D01*
X91460004Y-54410864D01*
X91460004Y-54869675D01*
X91216689Y-54869675D01*
G37*
G36*
X91000363Y-54437438D02*
G01*
X91000363Y-54194539D01*
X91243263Y-54194539D01*
X91243263Y-54437438D01*
X91000363Y-54437438D01*
G37*
G36*
X90784868Y-54221112D02*
G01*
X90784868Y-53977797D01*
X91026937Y-53977797D01*
X91026937Y-54221112D01*
X90784868Y-54221112D01*
G37*
G36*
X91000363Y-54004371D02*
G01*
X91000363Y-53787630D01*
X90351801Y-53787630D01*
X90351801Y-53544730D01*
X91460004Y-53544730D01*
X91460004Y-53787630D01*
X91243263Y-53787630D01*
X91243263Y-54004371D01*
X91000363Y-54004371D01*
G37*
G36*
X91648926Y-55086001D02*
G01*
X91648926Y-54843101D01*
X91865251Y-54843101D01*
X91865251Y-54626360D01*
X92108566Y-54626360D01*
X92108566Y-54843101D01*
X92757129Y-54843101D01*
X92757129Y-55086001D01*
X91648926Y-55086001D01*
G37*
G36*
X92081993Y-54652934D02*
G01*
X92081993Y-54410864D01*
X92324062Y-54410864D01*
X92324062Y-54652934D01*
X92081993Y-54652934D01*
G37*
G36*
X92297488Y-54437438D02*
G01*
X92297488Y-54194539D01*
X92540387Y-54194539D01*
X92540387Y-54437438D01*
X92297488Y-54437438D01*
G37*
G36*
X91648926Y-54004371D02*
G01*
X91648926Y-53761056D01*
X91891825Y-53761056D01*
X91891825Y-54004371D01*
X91648926Y-54004371D01*
G37*
G36*
X92513814Y-54221112D02*
G01*
X92513814Y-53761056D01*
X92757129Y-53761056D01*
X92757129Y-54221112D01*
X92513814Y-54221112D01*
G37*
G36*
X91865251Y-53787630D02*
G01*
X91865251Y-53544730D01*
X92540387Y-53544730D01*
X92540387Y-53787630D01*
X91865251Y-53787630D01*
G37*
G36*
X93918894Y-55086001D02*
G01*
X93918894Y-54843101D01*
X94160963Y-54843101D01*
X94160963Y-55086001D01*
X93918894Y-55086001D01*
G37*
G36*
X93702153Y-54869675D02*
G01*
X93702153Y-54626360D01*
X93945468Y-54626360D01*
X93945468Y-54869675D01*
X93702153Y-54869675D01*
G37*
G36*
X94134390Y-54869675D02*
G01*
X94134390Y-54626360D01*
X94377289Y-54626360D01*
X94377289Y-54869675D01*
X94134390Y-54869675D01*
G37*
G36*
X93485827Y-54652934D02*
G01*
X93485827Y-53977797D01*
X93728727Y-53977797D01*
X93728727Y-54652934D01*
X93485827Y-54652934D01*
G37*
G36*
X94350715Y-54652934D02*
G01*
X94350715Y-53977797D01*
X94594030Y-53977797D01*
X94594030Y-54652934D01*
X94350715Y-54652934D01*
G37*
G36*
X94999278Y-55086001D02*
G01*
X94999278Y-54843101D01*
X95674414Y-54843101D01*
X95674414Y-55086001D01*
X94999278Y-55086001D01*
G37*
G36*
X95216019Y-54437438D02*
G01*
X95216019Y-54194539D01*
X95458088Y-54194539D01*
X95458088Y-54437438D01*
X95216019Y-54437438D01*
G37*
G36*
X94782952Y-54869675D02*
G01*
X94782952Y-53761056D01*
X95025852Y-53761056D01*
X95025852Y-54410864D01*
X95242593Y-54410864D01*
X95242593Y-54652934D01*
X95025852Y-54652934D01*
X95025852Y-54869675D01*
X94782952Y-54869675D01*
G37*
G36*
X95647840Y-54869675D02*
G01*
X95647840Y-54221112D01*
X95431515Y-54221112D01*
X95431515Y-53977797D01*
X95647840Y-53977797D01*
X95647840Y-53761056D01*
X95891155Y-53761056D01*
X95891155Y-54869675D01*
X95647840Y-54869675D01*
G37*
G36*
X94999278Y-53787630D02*
G01*
X94999278Y-53544730D01*
X95674414Y-53544730D01*
X95674414Y-53787630D01*
X94999278Y-53787630D01*
G37*
G36*
X96080077Y-55086001D02*
G01*
X96080077Y-54626360D01*
X96539718Y-54626360D01*
X96539718Y-55086001D01*
X96080077Y-55086001D01*
G37*
G36*
X96944135Y-55086001D02*
G01*
X96944135Y-54843101D01*
X97160876Y-54843101D01*
X97160876Y-54004371D01*
X96944135Y-54004371D01*
X96944135Y-53761056D01*
X97160876Y-53761056D01*
X97160876Y-53544730D01*
X97402945Y-53544730D01*
X97402945Y-54843101D01*
X97619271Y-54843101D01*
X97619271Y-55086001D01*
X96944135Y-55086001D01*
G37*
G36*
X97809023Y-55086001D02*
G01*
X97809023Y-54626360D01*
X98268664Y-54626360D01*
X98268664Y-55086001D01*
X97809023Y-55086001D01*
G37*
G36*
X98673081Y-55086001D02*
G01*
X98673081Y-54843101D01*
X98889822Y-54843101D01*
X98889822Y-54004371D01*
X98673081Y-54004371D01*
X98673081Y-53761056D01*
X98889822Y-53761056D01*
X98889822Y-53544730D01*
X99131891Y-53544730D01*
X99131891Y-54843101D01*
X99348217Y-54843101D01*
X99348217Y-55086001D01*
X98673081Y-55086001D01*
G37*
G36*
X86703325Y-57942001D02*
G01*
X86703325Y-57699101D01*
X87378461Y-57699101D01*
X87378461Y-57942001D01*
X86703325Y-57942001D01*
G37*
G36*
X87351888Y-57725675D02*
G01*
X87351888Y-57482360D01*
X87595203Y-57482360D01*
X87595203Y-57725675D01*
X87351888Y-57725675D01*
G37*
G36*
X86487000Y-57725675D02*
G01*
X86487000Y-56617056D01*
X86729899Y-56617056D01*
X86729899Y-57725675D01*
X86487000Y-57725675D01*
G37*
G36*
X87351888Y-56860371D02*
G01*
X87351888Y-56617056D01*
X87595203Y-56617056D01*
X87595203Y-56860371D01*
X87351888Y-56860371D01*
G37*
G36*
X86703325Y-56643630D02*
G01*
X86703325Y-56400730D01*
X87378461Y-56400730D01*
X87378461Y-56643630D01*
X86703325Y-56643630D01*
G37*
G36*
X88649013Y-57942001D02*
G01*
X88649013Y-57266864D01*
X88892327Y-57266864D01*
X88892327Y-57942001D01*
X88649013Y-57942001D01*
G37*
G36*
X88217191Y-57293438D02*
G01*
X88217191Y-57050539D01*
X88675586Y-57050539D01*
X88675586Y-57293438D01*
X88217191Y-57293438D01*
G37*
G36*
X87784124Y-57942001D02*
G01*
X87784124Y-56617056D01*
X88027024Y-56617056D01*
X88027024Y-57266864D01*
X88243765Y-57266864D01*
X88243765Y-57508934D01*
X88027024Y-57508934D01*
X88027024Y-57942001D01*
X87784124Y-57942001D01*
G37*
G36*
X89946138Y-57293438D02*
G01*
X89946138Y-57050539D01*
X90189452Y-57050539D01*
X90189452Y-57293438D01*
X89946138Y-57293438D01*
G37*
G36*
X89081249Y-57942001D02*
G01*
X89081249Y-56833797D01*
X89324149Y-56833797D01*
X89324149Y-57050539D01*
X89540890Y-57050539D01*
X89540890Y-57293438D01*
X89324149Y-57293438D01*
X89324149Y-57942001D01*
X89081249Y-57942001D01*
G37*
G36*
X89514316Y-57077112D02*
G01*
X89514316Y-56833797D01*
X89972711Y-56833797D01*
X89972711Y-57077112D01*
X89514316Y-57077112D01*
G37*
G36*
X90594700Y-57942001D02*
G01*
X90594700Y-57699101D01*
X91269836Y-57699101D01*
X91269836Y-57942001D01*
X90594700Y-57942001D01*
G37*
G36*
X90378374Y-57725675D02*
G01*
X90378374Y-57050539D01*
X90621274Y-57050539D01*
X90621274Y-57725675D01*
X90378374Y-57725675D01*
G37*
G36*
X91243263Y-57725675D02*
G01*
X91243263Y-57050539D01*
X91486577Y-57050539D01*
X91486577Y-57725675D01*
X91243263Y-57725675D01*
G37*
G36*
X90594700Y-57077112D02*
G01*
X90594700Y-56833797D01*
X91269836Y-56833797D01*
X91269836Y-57077112D01*
X90594700Y-57077112D01*
G37*
G36*
X92108566Y-57508934D02*
G01*
X92108566Y-57050539D01*
X92350635Y-57050539D01*
X92350635Y-57508934D01*
X92108566Y-57508934D01*
G37*
G36*
X92540387Y-57942001D02*
G01*
X92540387Y-57050539D01*
X92783702Y-57050539D01*
X92783702Y-57942001D01*
X92540387Y-57942001D01*
G37*
G36*
X91675499Y-57942001D02*
G01*
X91675499Y-56833797D01*
X92135140Y-56833797D01*
X92135140Y-57077112D01*
X91918399Y-57077112D01*
X91918399Y-57942001D01*
X91675499Y-57942001D01*
G37*
G36*
X92324062Y-57077112D02*
G01*
X92324062Y-56833797D01*
X92566961Y-56833797D01*
X92566961Y-57077112D01*
X92324062Y-57077112D01*
G37*
G36*
X92972624Y-57725675D02*
G01*
X92972624Y-57482360D01*
X93215524Y-57482360D01*
X93215524Y-57725675D01*
X92972624Y-57725675D01*
G37*
G36*
X93188950Y-57942001D02*
G01*
X93188950Y-57699101D01*
X93837512Y-57699101D01*
X93837512Y-57508934D01*
X93188950Y-57508934D01*
X93188950Y-57266864D01*
X93837512Y-57266864D01*
X93837512Y-57050539D01*
X94080827Y-57050539D01*
X94080827Y-57942001D01*
X93188950Y-57942001D01*
G37*
G36*
X93188950Y-57077112D02*
G01*
X93188950Y-56833797D01*
X93864086Y-56833797D01*
X93864086Y-57077112D01*
X93188950Y-57077112D01*
G37*
G36*
X94269749Y-57942001D02*
G01*
X94269749Y-56400730D01*
X94512648Y-56400730D01*
X94512648Y-57699101D01*
X95377952Y-57699101D01*
X95377952Y-57942001D01*
X94269749Y-57942001D01*
G37*
G36*
X95783200Y-57942001D02*
G01*
X95783200Y-57699101D01*
X96458336Y-57699101D01*
X96458336Y-57942001D01*
X95783200Y-57942001D01*
G37*
G36*
X95566874Y-57725675D02*
G01*
X95566874Y-57050539D01*
X95809773Y-57050539D01*
X95809773Y-57725675D01*
X95566874Y-57725675D01*
G37*
G36*
X96431762Y-57725675D02*
G01*
X96431762Y-57050539D01*
X96675077Y-57050539D01*
X96675077Y-57725675D01*
X96431762Y-57725675D01*
G37*
G36*
X95783200Y-57077112D02*
G01*
X95783200Y-56833797D01*
X96458336Y-56833797D01*
X96458336Y-57077112D01*
X95783200Y-57077112D01*
G37*
G36*
X97080325Y-57942001D02*
G01*
X97080325Y-57699101D01*
X97755461Y-57699101D01*
X97755461Y-57942001D01*
X97080325Y-57942001D01*
G37*
G36*
X97728887Y-57725675D02*
G01*
X97728887Y-57482360D01*
X97972202Y-57482360D01*
X97972202Y-57725675D01*
X97728887Y-57725675D01*
G37*
G36*
X96863999Y-57725675D02*
G01*
X96863999Y-57050539D01*
X97106898Y-57050539D01*
X97106898Y-57725675D01*
X96863999Y-57725675D01*
G37*
G36*
X97080325Y-57077112D02*
G01*
X97080325Y-56833797D01*
X97755461Y-56833797D01*
X97755461Y-57077112D01*
X97080325Y-57077112D01*
G37*
G36*
X98809686Y-57942001D02*
G01*
X98809686Y-57699101D01*
X99052586Y-57699101D01*
X99052586Y-57942001D01*
X98809686Y-57942001D01*
G37*
G36*
X98594191Y-57725675D02*
G01*
X98594191Y-57482360D01*
X98836260Y-57482360D01*
X98836260Y-57725675D01*
X98594191Y-57725675D01*
G37*
G36*
X98594191Y-57293438D02*
G01*
X98594191Y-57050539D01*
X98836260Y-57050539D01*
X98836260Y-57293438D01*
X98594191Y-57293438D01*
G37*
G36*
X98809686Y-57077112D02*
G01*
X98809686Y-56833797D01*
X99052586Y-56833797D01*
X99052586Y-57077112D01*
X98809686Y-57077112D01*
G37*
G36*
X98161124Y-57942001D02*
G01*
X98161124Y-56617056D01*
X98404023Y-56617056D01*
X98404023Y-57266864D01*
X98620764Y-57266864D01*
X98620764Y-57508934D01*
X98404023Y-57508934D01*
X98404023Y-57942001D01*
X98161124Y-57942001D01*
G37*
G36*
X86487000Y-60798001D02*
G01*
X86487000Y-60555101D01*
X86703325Y-60555101D01*
X86703325Y-60338360D01*
X86946640Y-60338360D01*
X86946640Y-60555101D01*
X87595203Y-60555101D01*
X87595203Y-60798001D01*
X86487000Y-60798001D01*
G37*
G36*
X86920066Y-60364934D02*
G01*
X86920066Y-60122864D01*
X87162136Y-60122864D01*
X87162136Y-60364934D01*
X86920066Y-60364934D01*
G37*
G36*
X87135562Y-60149438D02*
G01*
X87135562Y-59906539D01*
X87378461Y-59906539D01*
X87378461Y-60149438D01*
X87135562Y-60149438D01*
G37*
G36*
X86487000Y-59716371D02*
G01*
X86487000Y-59473056D01*
X86729899Y-59473056D01*
X86729899Y-59716371D01*
X86487000Y-59716371D01*
G37*
G36*
X87351888Y-59933112D02*
G01*
X87351888Y-59473056D01*
X87595203Y-59473056D01*
X87595203Y-59933112D01*
X87351888Y-59933112D01*
G37*
G36*
X86703325Y-59499630D02*
G01*
X86703325Y-59256730D01*
X87378461Y-59256730D01*
X87378461Y-59499630D01*
X86703325Y-59499630D01*
G37*
G36*
X88000450Y-60798001D02*
G01*
X88000450Y-60555101D01*
X88675586Y-60555101D01*
X88675586Y-60798001D01*
X88000450Y-60798001D01*
G37*
G36*
X88217191Y-60149438D02*
G01*
X88217191Y-59906539D01*
X88459260Y-59906539D01*
X88459260Y-60149438D01*
X88217191Y-60149438D01*
G37*
G36*
X87784124Y-60581675D02*
G01*
X87784124Y-59473056D01*
X88027024Y-59473056D01*
X88027024Y-60122864D01*
X88243765Y-60122864D01*
X88243765Y-60364934D01*
X88027024Y-60364934D01*
X88027024Y-60581675D01*
X87784124Y-60581675D01*
G37*
G36*
X88649013Y-60581675D02*
G01*
X88649013Y-59933112D01*
X88432687Y-59933112D01*
X88432687Y-59689797D01*
X88649013Y-59689797D01*
X88649013Y-59473056D01*
X88892327Y-59473056D01*
X88892327Y-60581675D01*
X88649013Y-60581675D01*
G37*
G36*
X88000450Y-59499630D02*
G01*
X88000450Y-59256730D01*
X88675586Y-59256730D01*
X88675586Y-59499630D01*
X88000450Y-59499630D01*
G37*
G36*
X89081249Y-60798001D02*
G01*
X89081249Y-60555101D01*
X89297575Y-60555101D01*
X89297575Y-60338360D01*
X89540890Y-60338360D01*
X89540890Y-60555101D01*
X90189452Y-60555101D01*
X90189452Y-60798001D01*
X89081249Y-60798001D01*
G37*
G36*
X89514316Y-60364934D02*
G01*
X89514316Y-60122864D01*
X89756385Y-60122864D01*
X89756385Y-60364934D01*
X89514316Y-60364934D01*
G37*
G36*
X89729812Y-60149438D02*
G01*
X89729812Y-59906539D01*
X89972711Y-59906539D01*
X89972711Y-60149438D01*
X89729812Y-60149438D01*
G37*
G36*
X89081249Y-59716371D02*
G01*
X89081249Y-59473056D01*
X89324149Y-59473056D01*
X89324149Y-59716371D01*
X89081249Y-59716371D01*
G37*
G36*
X89946138Y-59933112D02*
G01*
X89946138Y-59473056D01*
X90189452Y-59473056D01*
X90189452Y-59933112D01*
X89946138Y-59933112D01*
G37*
G36*
X89297575Y-59499630D02*
G01*
X89297575Y-59256730D01*
X89972711Y-59256730D01*
X89972711Y-59499630D01*
X89297575Y-59499630D01*
G37*
G36*
X90594700Y-59933112D02*
G01*
X90594700Y-59689797D01*
X90838015Y-59689797D01*
X90838015Y-59933112D01*
X90594700Y-59933112D01*
G37*
G36*
X91026937Y-60798001D02*
G01*
X91026937Y-60364934D01*
X90378374Y-60364934D01*
X90378374Y-59906539D01*
X90621274Y-59906539D01*
X90621274Y-60122864D01*
X91026937Y-60122864D01*
X91026937Y-59716371D01*
X90811441Y-59716371D01*
X90811441Y-59473056D01*
X91026937Y-59473056D01*
X91026937Y-59256730D01*
X91269836Y-59256730D01*
X91269836Y-60122864D01*
X91486577Y-60122864D01*
X91486577Y-60364934D01*
X91269836Y-60364934D01*
X91269836Y-60798001D01*
X91026937Y-60798001D01*
G37*
D12*
%TO.C,Q1*%
X121968500Y-61559000D02*
X121318500Y-61559000D01*
X121968500Y-61559000D02*
X122618500Y-61559000D01*
X121968500Y-64679000D02*
X121318500Y-64679000D01*
X121968500Y-64679000D02*
X122618500Y-64679000D01*
X123371000Y-64959000D02*
X122891000Y-64959000D01*
X123131000Y-64629000D01*
X123371000Y-64959000D01*
G36*
X123371000Y-64959000D02*
G01*
X122891000Y-64959000D01*
X123131000Y-64629000D01*
X123371000Y-64959000D01*
G37*
%TO.C,J1*%
X92142000Y-70298000D02*
X92142000Y-72958000D01*
X99822000Y-70298000D02*
X92142000Y-70298000D01*
X99822000Y-70298000D02*
X99822000Y-72958000D01*
X99822000Y-72958000D02*
X92142000Y-72958000D01*
X101092000Y-70298000D02*
X102422000Y-70298000D01*
X102422000Y-70298000D02*
X102422000Y-71628000D01*
%TO.C,R4*%
X111025000Y-56801000D02*
X111025000Y-63341000D01*
X111025000Y-63341000D02*
X113765000Y-63341000D01*
X112395000Y-56031000D02*
X112395000Y-56801000D01*
X112395000Y-64111000D02*
X112395000Y-63341000D01*
X113765000Y-56801000D02*
X111025000Y-56801000D01*
X113765000Y-63341000D02*
X113765000Y-56801000D01*
%TO.C,R2*%
X129506000Y-56674000D02*
X129506000Y-63214000D01*
X129506000Y-63214000D02*
X132246000Y-63214000D01*
X130876000Y-55904000D02*
X130876000Y-56674000D01*
X130876000Y-63984000D02*
X130876000Y-63214000D01*
X132246000Y-56674000D02*
X129506000Y-56674000D01*
X132246000Y-63214000D02*
X132246000Y-56674000D01*
D13*
%TO.C,U1*%
X134280000Y-53866000D02*
X134280000Y-71666000D01*
X134280000Y-71666000D02*
X155280000Y-71666000D01*
X149352000Y-58262000D02*
X156705000Y-58262000D01*
X149352000Y-67261000D02*
X149352000Y-58262000D01*
X154608500Y-53866000D02*
X134280000Y-53866000D01*
X155280000Y-54537541D02*
X154608500Y-53866000D01*
X155280000Y-71666000D02*
X155280000Y-54537541D01*
X156704000Y-58266000D02*
X156704000Y-67261000D01*
X156704000Y-67261000D02*
X149352000Y-67261000D01*
D12*
%TO.C,R3*%
X114454000Y-56801000D02*
X114454000Y-63341000D01*
X114454000Y-63341000D02*
X117194000Y-63341000D01*
X115824000Y-56031000D02*
X115824000Y-56801000D01*
X115824000Y-64111000D02*
X115824000Y-63341000D01*
X117194000Y-56801000D02*
X114454000Y-56801000D01*
X117194000Y-63341000D02*
X117194000Y-56801000D01*
%TO.C,Q2*%
X121968500Y-56606000D02*
X121318500Y-56606000D01*
X121968500Y-56606000D02*
X122618500Y-56606000D01*
X121968500Y-59726000D02*
X121318500Y-59726000D01*
X121968500Y-59726000D02*
X122618500Y-59726000D01*
X123371000Y-60006000D02*
X122891000Y-60006000D01*
X123131000Y-59676000D01*
X123371000Y-60006000D01*
G36*
X123371000Y-60006000D02*
G01*
X122891000Y-60006000D01*
X123131000Y-59676000D01*
X123371000Y-60006000D01*
G37*
%TO.C,R1*%
X126138000Y-56674000D02*
X126138000Y-63214000D01*
X126138000Y-63214000D02*
X128878000Y-63214000D01*
X127508000Y-55904000D02*
X127508000Y-56674000D01*
X127508000Y-63984000D02*
X127508000Y-63214000D01*
X128878000Y-56674000D02*
X126138000Y-56674000D01*
X128878000Y-63214000D02*
X128878000Y-56674000D01*
%TD*%
M02*
